<svg width="194" height="108" viewBox="0 0 194 108" fill="none" xmlns="http://www.w3.org/2000/svg">
<path d="M193.427 54.2577C193.067 83.2918 169.597 106.759 140.567 107.127L139.867 107.131C127.347 107.131 115.277 102.82 105.827 94.2958V94.2918L80.4874 70.6278L80.4674 70.6128L80.4574 70.5998V70.5968L80.1774 70.3588V70.3558L80.1674 70.3438L80.1575 70.3388L79.8474 70.0868L79.5374 69.8548C76.2874 67.5198 71.9574 67.2048 68.3774 69.1348C63.6374 71.6848 59.3974 74.0868 54.2544 74.2338L53.7544 74.2408C42.6094 74.2408 33.5404 65.3448 33.2594 54.2641L33.2524 53.735C33.2524 42.41 42.4334 33.2286 53.7544 33.2284L54.2344 33.2341C58.9974 33.3428 63.3474 35.0706 66.7774 37.8887L67.1174 38.1743L67.1274 38.1832L115.257 83.1718L115.267 83.1788V83.1868L115.567 83.4608L115.577 83.4678C122.187 89.4368 130.717 92.5618 139.867 92.5628L140.377 92.5588C161.507 92.2908 178.597 75.2068 178.867 54.0697V53.5654C178.867 32.197 161.677 14.8429 140.377 14.5725L139.867 14.5693C132.657 14.5694 128.077 16.0315 124.397 18.0923C123.117 18.8138 121.917 19.615 120.727 20.5098C119.777 21.224 118.527 21.1434 117.737 20.3727C114.717 17.4189 111.717 14.4506 108.707 11.4837C111.397 9.2309 114.207 7.109 117.267 5.3884C123.327 1.9896 130.407 0.0001 139.867 0L140.567 0.00449753C169.827 0.375498 193.437 24.2134 193.437 53.5654L193.427 54.2577Z" fill="black"/>
<path d="M0.00500488 52.873C0.372005 23.8395 23.84 0.372498 52.874 0.00439835L53.564 0C66.097 0.0001 78.167 4.3109 87.607 12.8352V12.8391L112.947 36.5033L112.957 36.5039L112.967 36.5186L112.987 36.5314V36.5339L113.257 36.7723L113.267 36.7755L113.277 36.787V36.7921L113.597 37.0439L113.907 37.276C117.147 39.6114 121.487 39.9263 125.067 37.9964C129.797 35.4461 134.037 33.0446 139.177 32.8968L139.677 32.8898C150.827 32.8901 159.897 41.7863 160.177 52.8666L160.187 53.3958C160.187 64.7208 151.007 73.9028 139.677 73.9028L139.197 73.8968C134.447 73.7878 130.087 72.0608 126.667 69.2428L126.327 68.9568L126.317 68.9478L78.187 23.9588L78.177 23.9524L78.167 23.9447L77.867 23.67L77.857 23.6636C71.257 17.6945 62.727 14.5688 53.564 14.5687L53.064 14.5719C31.925 14.8401 14.84 31.9247 14.572 53.0611L14.569 53.5654C14.569 74.9338 31.757 92.2878 53.064 92.5588C58.607 92.5938 64.147 91.7828 69.037 89.0388C70.327 88.3168 71.517 87.5158 72.707 86.6208C73.657 85.9068 74.917 85.9878 75.697 86.7588C78.717 89.7118 81.727 92.6808 84.727 95.6478C82.037 97.8998 79.237 100.022 76.167 101.743C69.027 105.749 60.997 107.179 52.874 107.127C23.609 106.756 0 82.9178 0 53.5654L0.00500488 52.873Z" fill="black"/>
</svg>
