<svg width="36" height="43" viewBox="0 0 36 43" fill="none" xmlns="http://www.w3.org/2000/svg">
<path fill-rule="evenodd" clip-rule="evenodd" d="M11.9881 1.83681C13.3067 0.459944 15.2049 -0.202667 17.0939 0.0545039C18.3691 0.228126 19.5538 0.810284 20.4706 1.71342L21.4114 2.63998H22.665C29.6434 2.64 35.3005 8.29732 35.3006 15.2758V28.8821H35.2937C35.2923 34.1769 34 37.6449 31.261 39.8942C27.7406 43.1946 20.9195 43.5024 16.959 40.3341C15.4012 39.0879 14.3688 37.6938 13.2687 35.2736L19.5059 32.8942C19.7197 33.3611 20.1229 34.1352 20.7712 34.8334C22.099 36.2633 24.8863 36.2705 25.9803 35.2736C28.6205 32.8676 26.3622 28.8832 21.7149 28.8832L12.2897 28.8821C6.167 28.8821 1.08732 24.4162 0.130351 18.5641L0.132861 18.5678C-0.395175 15.0475 0.683041 13.9343 2.79271 13.9342H8.50687C13.186 13.9342 14.4565 11.9733 14.4565 8.44862V6.64117H13.6095C13.6095 6.64117 13.4968 7.57065 13.1541 8.44862C12.4279 10.3089 11.7282 11.6548 8.99602 11.6548C7.77023 11.6548 6.54436 11.6519 5.31851 11.6512C4.40736 11.6506 3.49621 11.6512 2.58511 11.655L4.37504 9.78601L11.9881 1.83681ZM26.096 18.1126C24.4324 18.1127 23.0838 19.2116 23.0838 20.5672H29.1084C29.1084 19.2116 27.7597 18.1126 26.096 18.1126Z" fill="#00A82D"/>
</svg>
