<svg width="184" height="201" viewBox="0 0 184 201" fill="none" xmlns="http://www.w3.org/2000/svg">
<path d="M90.846 0.125355C113.618 -0.983395 135.637 5.21936 152.992 20.4694C171.007 36.2986 181.99 60.7086 183.517 84.4901C185.345 113.145 175.772 141.36 156.886 162.987C138.633 183.734 117.241 194.977 89.634 196.715C87.1127 196.808 84.5887 196.8 82.068 196.69C79.852 196.574 74.2045 196.093 72.3245 196.488C67.2677 197.549 65.406 199.686 59.6595 200.104C52.0717 200.786 43.5175 195.853 39.6852 189.419C37.4702 185.521 36.6735 181.498 32.988 178.546C12.5297 162.159 1.53673 136.711 0.16348 111.022C-1.41627 82.0446 8.50273 53.6139 27.7652 31.9079C41.6225 16.5234 59.5412 5.48336 79.946 1.83211C83.688 1.16261 86.9977 0.321605 90.846 0.125355Z" fill="#AD253B"/>
<path d="M91.9489 10.372C92.2439 10.3472 92.5699 10.3352 92.8682 10.3197C113.001 9.08775 132.781 16.0232 147.736 29.5585C183.543 61.96 180.21 123.079 148.541 156.843C131.553 174.956 112.469 185.56 87.3859 186.749C85.0112 186.814 82.6347 186.737 80.2689 186.519C78.2464 186.332 71.4539 185.442 69.9989 185.887C63.4629 187.889 62.1187 191.445 54.2977 189.068C46.6969 186.759 48.2567 180.429 44.6674 174.973C43.1127 172.609 38.2762 169.817 36.1367 167.733C19.8967 153.859 11.5132 132.903 9.79991 112.006C7.92516 86.6123 16.1552 61.506 32.6989 42.1502C48.2344 23.8682 67.8389 12.3107 91.9489 10.372Z" fill="white"/>
<path d="M65.0722 34.0742C66.4189 34.166 66.8649 34.2937 68.1769 34.6672L68.3222 34.817C70.6402 37.255 70.5267 38.2742 70.4407 41.4495C68.7442 43.2965 62.3697 47.203 59.7887 49.2547C48.4674 58.42 40.2452 70.851 36.2412 84.856C29.1742 108.851 34.7954 135.85 55.3099 151.297C60.4359 155.156 61.2492 159.553 54.8999 162.698C53.8677 162.497 52.8764 162.126 51.9667 161.598C49.2339 160.027 46.8214 157.687 44.5257 155.554C19.0432 131.876 17.3782 92.7625 34.2369 63.544C39.7449 53.9027 47.2192 45.5277 56.1742 38.9627C58.8592 36.9902 61.8297 34.9427 65.0722 34.0742Z" fill="#AD253B"/>
<path d="M114.518 20.5605C120.511 21.0213 118.898 24.7831 124.426 27.7368C127.007 27.2568 128.834 26.1575 131.544 27.0315C134.439 27.9653 135.529 30.7043 134.407 33.4938C133.61 35.4778 132.279 36.0913 130.371 36.8905C126.323 38.0595 123.001 37.8881 118.836 36.1981C114.729 34.5313 108.6 28.5103 110.57 23.4858C111.204 21.8703 112.931 21.1095 114.518 20.5605Z" fill="#AD253B"/>
</svg>
