<?xml version="1.0" encoding="UTF-8"?>
<svg width="40px" height="40px" viewBox="0 0 40 40" version="1.1" xmlns="http://www.w3.org/2000/svg" xmlns:xlink="http://www.w3.org/1999/xlink">
    <!-- Generator: Sketch 49.1 (51147) - http://www.bohemiancoding.com/sketch -->
    <title>Combined Shape</title>
    <desc>Created with Sketch.</desc>
    <defs></defs>
    <g id="Symbols" stroke="none" stroke-width="1" fill="none" fill-rule="evenodd">
        <g id="icon/facebook" fill="#3CC47C">
            <path d="M27.1224968,40 C27.1240463,39.9812676 27.1248364,39.9623211 27.1248364,39.9431913 L27.1248364,26.0718624 L32.2356477,26.0718624 C32.6133608,26.0718624 32.9192283,25.7667877 32.9192283,25.3900536 L32.9213209,19.8927969 C32.9213209,19.7119088 32.8491264,19.5386738 32.7211294,19.4106607 C32.5931324,19.2826476 32.4187496,19.2106403 32.2373915,19.2106403 L27.1248364,19.2106403 L27.1248364,15.994312 C27.1248364,14.4484151 27.4941792,13.6636393 29.5131833,13.6636393 L32.4417682,13.6625957 C32.8191326,13.6625957 33.125,13.3571732 33.125,12.980787 L33.125,7.87626596 C33.125,7.50022757 32.8194813,7.19515296 32.4424657,7.19445723 L28.0951024,7.1875 C23.2109888,7.1875 20.05466,10.4173949 20.05466,15.4165139 L20.05466,19.2106403 L15.6835806,19.2106403 C15.3058674,19.2106403 15,19.5160628 15,19.8927969 L15,25.3900536 C15,25.7667877 15.3062162,26.0718624 15.6835806,26.0718624 L20.05466,26.0718624 L20.05466,39.9431913 C20.05466,39.9623225 20.0554488,39.9812689 20.0569956,40 L6,40 C2.6862915,40 4.05812251e-16,37.3137085 0,34 L0,6 C-4.05812251e-16,2.6862915 2.6862915,6.08718376e-16 6,0 L34,0 C37.3137085,-6.08718376e-16 40,2.6862915 40,6 L40,34 C40,37.3137085 37.3137085,40 34,40 L27.1224968,40 Z" id="Combined-Shape"></path>
        </g>
    </g>
</svg>