<?xml version="1.0" encoding="UTF-8"?>
<svg width="40px" height="40px" viewBox="0 0 40 40" version="1.1" xmlns="http://www.w3.org/2000/svg" xmlns:xlink="http://www.w3.org/1999/xlink">
    <!-- Generator: Sketch 49.1 (51147) - http://www.bohemiancoding.com/sketch -->
    <title>Combined Shape</title>
    <desc>Created with Sketch.</desc>
    <defs></defs>
    <g id="Symbols" stroke="none" stroke-width="1" fill="none" fill-rule="evenodd">
        <g id="icon/linkedin" fill="#3CC47C">
            <path d="M6,0 L34,0 C37.3137085,-6.08718376e-16 40,2.6862915 40,6 L40,34 C40,37.3137085 37.3137085,40 34,40 L6,40 C2.6862915,40 4.05812251e-16,37.3137085 0,34 L0,6 C-4.05812251e-16,2.6862915 2.6862915,6.08718376e-16 6,0 Z M34.6875,23.6143217 C34.6875,17.8500568 31.6141996,15.1678216 27.5145963,15.1678892 C24.2056159,15.1678892 22.7272775,16.9919337 21.8994919,18.2687987 L21.8994919,18.329431 L21.8585452,18.329431 C21.8704373,18.3101451 21.8868565,18.2886937 21.8994919,18.2687987 L21.8994919,15.6087592 L15.6689706,15.6087592 C15.7528911,17.3705473 15.6689706,34.375 15.6689706,34.375 L21.9001,34.375 L21.9001,23.8947461 C21.9001,23.3332206 21.9423981,22.7748755 22.1067255,22.3737278 C22.557342,21.2516241 23.5816178,20.0916252 25.3027984,20.0916252 C27.5575025,20.0916252 28.4584652,21.812879 28.4584652,24.335007 L28.4584652,34.375 L34.6875,34.375 L34.6875,23.6143217 Z M9.15094396,6.5625 C7.01928269,6.5625 5.625,7.96279504 5.625,9.80423073 C5.625,11.6055381 6.9789441,13.0483299 9.06823972,13.0483299 L9.10986211,13.0483299 C11.2828079,13.0483299 12.6341844,11.6058088 12.6341844,9.80423073 C12.5932377,7.96279504 11.2828079,6.5625 9.15094396,6.5625 Z M5.99507445,34.375 L12.2238389,34.375 L12.2238389,15.6087592 L5.99507445,15.6087592 L5.99507445,34.375 Z" id="Combined-Shape"></path>
        </g>
    </g>
</svg>