<?xml version="1.0" encoding="UTF-8"?>
<svg width="40px" height="40px" viewBox="0 0 40 40" version="1.1" xmlns="http://www.w3.org/2000/svg" xmlns:xlink="http://www.w3.org/1999/xlink">
    <!-- Generator: Sketch 49.1 (51147) - http://www.bohemiancoding.com/sketch -->
    <title>Combined Shape</title>
    <desc>Created with Sketch.</desc>
    <defs></defs>
    <g id="Symbols" stroke="none" stroke-width="1" fill="none" fill-rule="evenodd">
        <g id="icon/mail" fill="#3CC47C">
            <path d="M6,0 L34,0 C37.3137085,-6.08718376e-16 40,2.6862915 40,6 L40,34 C40,37.3137085 37.3137085,40 34,40 L6,40 C2.6862915,40 4.05812251e-16,37.3137085 0,34 L0,6 C-4.05812251e-16,2.6862915 2.6862915,6.08718376e-16 6,0 Z M35,9.58716667 C34.6094568,9.22316667 34.0843932,9 33.5007482,9 L7.49491246,9 C6.91560676,9 6.39054317,9.22533333 6,9.5915 L20.4978303,22 L35,9.58716667 Z M5,11 L5,29 L15,20.1018296 L5,11 Z M20.5032548,24.3569531 L16.7450804,21 L6,30.3999114 C6.39057239,30.7697077 6.91784512,31 7.49936401,31 L33.5071455,31 C34.0864946,31 34.6115975,30.7697077 35,30.3999114 L24.2614291,21 L20.5032548,24.3569531 Z M25,20.1050415 L35,29 L35,11 L25,20.1050415 Z" id="Combined-Shape"></path>
        </g>
    </g>
</svg>