<?xml version="1.0" encoding="UTF-8"?>
<svg width="40px" height="40px" viewBox="0 0 40 40" version="1.1" xmlns="http://www.w3.org/2000/svg" xmlns:xlink="http://www.w3.org/1999/xlink">
    <!-- Generator: Sketch 52.5 (67469) - http://www.bohemiancoding.com/sketch -->
    <title>icon/twitter</title>
    <desc>Created with Sketch.</desc>
    <g id="icon/twitter" stroke="none" stroke-width="1" fill="none" fill-rule="evenodd">
        <path d="M6,0 L34,0 C37.3137085,-6.08718376e-16 40,2.6862915 40,6 L40,34 C40,37.3137085 37.3137085,40 34,40 L6,40 C2.6862915,40 4.05812251e-16,37.3137085 0,34 L0,6 C-4.05812251e-16,2.6862915 2.6862915,6.08718376e-16 6,0 Z M34,11.7111503 C32.9694444,12.1677974 31.8636732,12.4774902 30.7018562,12.6157516 C31.8881503,11.905366 32.7962288,10.7785948 33.2266144,9.44008497 C32.1138431,10.0979477 30.885549,10.5756405 29.5767778,10.8345948 C28.5287451,9.71656209 27.0380196,9.02017647 25.3845556,9.02017647 C22.2124118,9.02017647 19.6403922,11.5921961 19.6403922,14.7626013 C19.6403922,15.2122484 19.6911307,15.6514183 19.7891307,16.0713725 C15.0160458,15.831634 10.7836078,13.5448301 7.95089542,10.0699477 C7.45572549,10.9168105 7.17403268,11.9035817 7.17403268,12.9569216 C7.17403268,14.949817 8.18884967,16.7082353 9.72857516,17.7370065 C8.78723529,17.7055294 7.90189542,17.4465752 7.12681699,17.0161438 L7.12681699,17.0878824 C7.12681699,19.8698562 9.10745098,22.1916601 11.7336863,22.7200915 C11.2525163,22.8495686 10.7451307,22.9213072 10.2202222,22.9213072 C9.84931373,22.9213072 9.49062092,22.8845686 9.1389281,22.8145686 C9.87026797,25.0978954 11.990902,26.7583137 14.5034444,26.8038366 C12.538549,28.3435621 10.0610065,29.2586405 7.37003268,29.2586405 C6.90638562,29.2586405 6.44969281,29.2306405 6.00004575,29.179902 C8.5423268,30.812366 11.5605163,31.764183 14.8043987,31.764183 C25.3706471,31.764183 31.1463333,23.0123072 31.1463333,15.4222484 L31.1270719,14.6786471 C32.2555817,13.8737386 33.2318758,12.8624444 34,11.7111503 Z" id="Combined-Shape" fill="#3CC47C"></path>
    </g>
</svg>